<svg width="17" height="17" viewBox="0 0 17 17" fill="none" xmlns="http://www.w3.org/2000/svg">
<path d="M12.059 8.17941H9.34473V5.46512C9.34473 5.38655 9.28044 5.32227 9.20187 5.32227H8.34473C8.26616 5.32227 8.20187 5.38655 8.20187 5.46512V8.17941H5.48758C5.40901 8.17941 5.34473 8.2437 5.34473 8.32227V9.17941C5.34473 9.25798 5.40901 9.32227 5.48758 9.32227H8.20187V12.0366C8.20187 12.1151 8.26616 12.1794 8.34473 12.1794H9.20187C9.28044 12.1794 9.34473 12.1151 9.34473 12.0366V9.32227H12.059C12.1376 9.32227 12.2019 9.25798 12.2019 9.17941V8.32227C12.2019 8.2437 12.1376 8.17941 12.059 8.17941Z" fill="white"/>
<path d="M8.77344 0.75C4.35558 0.75 0.773438 4.33214 0.773438 8.75C0.773438 13.1679 4.35558 16.75 8.77344 16.75C13.1913 16.75 16.7734 13.1679 16.7734 8.75C16.7734 4.33214 13.1913 0.75 8.77344 0.75ZM8.77344 15.3929C5.10558 15.3929 2.13058 12.4179 2.13058 8.75C2.13058 5.08214 5.10558 2.10714 8.77344 2.10714C12.4413 2.10714 15.4163 5.08214 15.4163 8.75C15.4163 12.4179 12.4413 15.3929 8.77344 15.3929Z" fill="white"/>
</svg>
