<svg width="10" height="14" viewBox="0 0 10 14" fill="none" xmlns="http://www.w3.org/2000/svg">
<path fill-rule="evenodd" clip-rule="evenodd" d="M9.06646 5.24823C8.77357 5.54113 8.21955 5.46198 7.82903 5.07146L5.0006 2.24303C4.61008 1.85251 4.53093 1.29849 4.82382 1.00559C5.11672 0.7127 5.67074 0.791846 6.06126 1.18237L8.88969 4.0108C9.28021 4.40132 9.35936 4.95534 9.06646 5.24823Z" fill="#E0E0E0"/>
<path fill-rule="evenodd" clip-rule="evenodd" d="M5.66303 1.00507C5.95592 1.29796 5.87678 1.85198 5.48625 2.24251L2.65783 5.07093C2.2673 5.46146 1.71328 5.5406 1.42039 5.24771C1.1275 4.95482 1.20664 4.4008 1.59717 4.01027L4.42559 1.18185C4.81612 0.791323 5.37014 0.712177 5.66303 1.00507Z" fill="#E0E0E0"/>
<path fill-rule="evenodd" clip-rule="evenodd" d="M1.41987 9.15753C1.71276 8.86463 2.26678 8.94378 2.6573 9.3343L5.48573 12.1627C5.87625 12.5533 5.9554 13.1073 5.66251 13.4002C5.36961 13.6931 4.81559 13.6139 4.42507 13.2234L1.59664 10.395C1.20612 10.0044 1.12697 9.45042 1.41987 9.15753Z" fill="#E0E0E0"/>
<path fill-rule="evenodd" clip-rule="evenodd" d="M4.8233 13.4007C4.53041 13.1078 4.60955 12.5538 5.00008 12.1633L7.8285 9.33483C8.21903 8.9443 8.77305 8.86516 9.06594 9.15805C9.35883 9.45094 9.27969 10.005 8.88916 10.3955L6.06074 13.2239C5.67021 13.6144 5.11619 13.6936 4.8233 13.4007Z" fill="#E0E0E0"/>
</svg>
